<svg version="1.1" xmlns="http://www.w3.org/2000/svg" xmlns:xlink="http://www.w3.org/1999/xlink" width="947" height="489"><defs/><g><g transform="translate(-62,-62) scale(1,1)"><rect fill="#C0C0C0" stroke="none" x="79" y="79" width="176" height="160" opacity="0.2"/></g><g transform="translate(-62,-62) scale(1,1)"><rect fill="#ffffff" stroke="none" x="72" y="72" width="176" height="160"/></g><g transform="translate(-62,-62) scale(1,1)"><path fill="none" stroke="#000000" d="M 72 72 L 248 72 L 248 232 L 72 232 L 72 72 Z Z" stroke-miterlimit="10"/></g><g transform="translate(-62,-62) scale(1,1)"><path fill="none" stroke="#000000" d="M 72 97 L 248 97" stroke-miterlimit="10"/></g><g transform="translate(-62,-62) scale(1,1)"><path fill="none" stroke="#000000" d="M 72 195 L 248 195" stroke-miterlimit="10"/></g><g transform="translate(-62,-62) scale(1,1)"><g><path fill="none" stroke="none"/><text fill="#000000" stroke="none" font-family="Arial" font-size="13px" font-style="normal" font-weight="bold" text-decoration="none" x="145.54638671875" y="90">User</text></g></g><g transform="translate(-62,-62) scale(1,1)"><g><path fill="none" stroke="none"/><text fill="#000000" stroke="none" font-family="Arial" font-size="13px" font-style="normal" font-weight="normal" text-decoration="none" x="77" y="113">+id: string</text></g></g><g transform="translate(-62,-62) scale(1,1)"><g><path fill="none" stroke="none"/><text fill="#000000" stroke="none" font-family="Arial" font-size="13px" font-style="normal" font-weight="normal" text-decoration="none" x="77" y="128">+firstName: string</text></g></g><g transform="translate(-62,-62) scale(1,1)"><g><path fill="none" stroke="none"/><text fill="#000000" stroke="none" font-family="Arial" font-size="13px" font-style="normal" font-weight="normal" text-decoration="none" x="77" y="143">+lastName: string</text></g></g><g transform="translate(-62,-62) scale(1,1)"><g><path fill="none" stroke="none"/><text fill="#000000" stroke="none" font-family="Arial" font-size="13px" font-style="normal" font-weight="normal" text-decoration="none" x="77" y="158">+email: string</text></g></g><g transform="translate(-62,-62) scale(1,1)"><g><path fill="none" stroke="none"/><text fill="#000000" stroke="none" font-family="Arial" font-size="13px" font-style="normal" font-weight="normal" text-decoration="none" x="77" y="173">+password: string</text></g></g><g transform="translate(-62,-62) scale(1,1)"><g><path fill="none" stroke="none"/><text fill="#000000" stroke="none" font-family="Arial" font-size="13px" font-style="normal" font-weight="normal" text-decoration="none" x="77" y="188">+roleId: Role</text></g></g><g transform="translate(-62,-62) scale(1,1)"><g><path fill="none" stroke="none"/><text fill="#000000" stroke="none" font-family="Arial" font-size="13px" font-style="normal" font-weight="normal" text-decoration="none" x="77" y="211">+Login()</text></g></g><g transform="translate(-62,-62) scale(1,1)"><g><path fill="none" stroke="none"/><text fill="#000000" stroke="none" font-family="Arial" font-size="13px" font-style="normal" font-weight="normal" text-decoration="none" x="77" y="226">+Register()</text></g></g><g transform="translate(-62,-62) scale(1,1)"><rect fill="#C0C0C0" stroke="none" x="79" y="439" width="168" height="100" opacity="0.2"/></g><g transform="translate(-62,-62) scale(1,1)"><rect fill="#ffffff" stroke="none" x="72" y="432" width="168" height="100"/></g><g transform="translate(-62,-62) scale(1,1)"><path fill="none" stroke="#000000" d="M 72 432 L 240 432 L 240 532 L 72 532 L 72 432 Z Z" stroke-miterlimit="10"/></g><g transform="translate(-62,-62) scale(1,1)"><path fill="none" stroke="#000000" d="M 72 457 L 240 457" stroke-miterlimit="10"/></g><g transform="translate(-62,-62) scale(1,1)"><path fill="none" stroke="#000000" d="M 72 510 L 240 510" stroke-miterlimit="10"/></g><g transform="translate(-62,-62) scale(1,1)"><g><path fill="none" stroke="none"/><text fill="#000000" stroke="none" font-family="Arial" font-size="13px" font-style="normal" font-weight="bold" text-decoration="none" x="141.91455078125" y="450">Role</text></g></g><g transform="translate(-62,-62) scale(1,1)"><g><path fill="none" stroke="none"/><text fill="#000000" stroke="none" font-family="Arial" font-size="13px" font-style="normal" font-weight="normal" text-decoration="none" x="77" y="473">+id: string</text></g></g><g transform="translate(-62,-62) scale(1,1)"><g><path fill="none" stroke="none"/><text fill="#000000" stroke="none" font-family="Arial" font-size="13px" font-style="normal" font-weight="normal" text-decoration="none" x="77" y="488">+name: string</text></g></g><g transform="translate(-62,-62) scale(1,1)"><g><path fill="none" stroke="none"/><text fill="#000000" stroke="none" font-family="Arial" font-size="13px" font-style="normal" font-weight="normal" text-decoration="none" x="77" y="503">+description: string</text></g></g><g transform="translate(-62,-62) scale(1,1)"><g><path fill="none" stroke="none"/><text fill="#000000" stroke="none" font-family="Arial" font-size="13px" font-style="normal" font-weight="normal" text-decoration="none" x="77" y="526">+RoleManagements()</text></g></g><g transform="translate(-62,-62) scale(1,1)"><path fill="none" stroke="#000000" d="M 157 431 L 159 233" stroke-miterlimit="10"/></g><g transform="translate(-62,-62) scale(1,1)"><g><path fill="none" stroke="none"/><text fill="#000000" stroke="none" font-family="Arial" font-size="13px" font-style="normal" font-weight="normal" text-decoration="none" x="161.5" y="425">1..*</text></g></g><g transform="translate(-62,-62) scale(1,1)"><g><path fill="none" stroke="none"/><text fill="#000000" stroke="none" font-family="Arial" font-size="13px" font-style="normal" font-weight="normal" text-decoration="none" x="166.5" y="250">1</text></g></g><g transform="translate(-62,-62) scale(1,1)"><rect fill="#C0C0C0" stroke="none" x="839" y="79" width="167" height="162" opacity="0.2"/></g><g transform="translate(-62,-62) scale(1,1)"><rect fill="#ffffff" stroke="none" x="832" y="72" width="167" height="162"/></g><g transform="translate(-62,-62) scale(1,1)"><path fill="none" stroke="#000000" d="M 832 72 L 999 72 L 999 234 L 832 234 L 832 72 Z Z" stroke-miterlimit="10"/></g><g transform="translate(-62,-62) scale(1,1)"><path fill="none" stroke="#000000" d="M 832 97 L 999 97" stroke-miterlimit="10"/></g><g transform="translate(-62,-62) scale(1,1)"><path fill="none" stroke="#000000" d="M 832 210 L 999 210" stroke-miterlimit="10"/></g><g transform="translate(-62,-62) scale(1,1)"><g><path fill="none" stroke="none"/><text fill="#000000" stroke="none" font-family="Arial" font-size="13px" font-style="normal" font-weight="bold" text-decoration="none" x="897.799560546875" y="90">Event</text></g></g><g transform="translate(-62,-62) scale(1,1)"><g><path fill="none" stroke="none"/><text fill="#000000" stroke="none" font-family="Arial" font-size="13px" font-style="normal" font-weight="normal" text-decoration="none" x="837" y="113">+id: string</text></g></g><g transform="translate(-62,-62) scale(1,1)"><g><path fill="none" stroke="none"/><text fill="#000000" stroke="none" font-family="Arial" font-size="13px" font-style="normal" font-weight="normal" text-decoration="none" x="837" y="128">+title: string</text></g></g><g transform="translate(-62,-62) scale(1,1)"><g><path fill="none" stroke="none"/><text fill="#000000" stroke="none" font-family="Arial" font-size="13px" font-style="normal" font-weight="normal" text-decoration="none" x="837" y="143">+description: string</text></g></g><g transform="translate(-62,-62) scale(1,1)"><g><path fill="none" stroke="none"/><text fill="#000000" stroke="none" font-family="Arial" font-size="13px" font-style="normal" font-weight="normal" text-decoration="none" x="837" y="158">+date: Date</text></g></g><g transform="translate(-62,-62) scale(1,1)"><g><path fill="none" stroke="none"/><text fill="#000000" stroke="none" font-family="Arial" font-size="13px" font-style="normal" font-weight="normal" text-decoration="none" x="837" y="173">+location: string</text></g></g><g transform="translate(-62,-62) scale(1,1)"><g><path fill="none" stroke="none"/><text fill="#000000" stroke="none" font-family="Arial" font-size="13px" font-style="normal" font-weight="normal" text-decoration="none" x="837" y="188">+catacity: int</text></g></g><g transform="translate(-62,-62) scale(1,1)"><g><path fill="none" stroke="none"/><text fill="#000000" stroke="none" font-family="Arial" font-size="13px" font-style="normal" font-weight="normal" text-decoration="none" x="837" y="202.5">+status: enum</text></g></g><g transform="translate(-62,-62) scale(1,1)"><g><path fill="none" stroke="none"/><text fill="#000000" stroke="none" font-family="Arial" font-size="13px" font-style="normal" font-weight="normal" text-decoration="none" x="837" y="226">+EventManagements()</text></g></g><g transform="translate(-62,-62) scale(1,1)"><rect fill="#C0C0C0" stroke="none" x="455" y="103" width="176.9970703125" height="115" opacity="0.2"/></g><g transform="translate(-62,-62) scale(1,1)"><rect fill="#ffffff" stroke="none" x="448" y="96" width="176.9970703125" height="115"/></g><g transform="translate(-62,-62) scale(1,1)"><path fill="none" stroke="#000000" d="M 448 96 L 624.9970703125 96 L 624.9970703125 211 L 448 211 L 448 96 Z Z" stroke-miterlimit="10"/></g><g transform="translate(-62,-62) scale(1,1)"><path fill="none" stroke="#000000" d="M 448 121 L 624.9970703125 121" stroke-miterlimit="10"/></g><g transform="translate(-62,-62) scale(1,1)"><path fill="none" stroke="#000000" d="M 448 189 L 624.9970703125 189" stroke-miterlimit="10"/></g><g transform="translate(-62,-62) scale(1,1)"><g><path fill="none" stroke="none"/><text fill="#000000" stroke="none" font-family="Arial" font-size="13px" font-style="normal" font-weight="bold" text-decoration="none" x="499.28857421875" y="114">Reservation</text></g></g><g transform="translate(-62,-62) scale(1,1)"><g><path fill="none" stroke="none"/><text fill="#000000" stroke="none" font-family="Arial" font-size="13px" font-style="normal" font-weight="normal" text-decoration="none" x="453" y="137">+id: string</text></g></g><g transform="translate(-62,-62) scale(1,1)"><g><path fill="none" stroke="none"/><text fill="#000000" stroke="none" font-family="Arial" font-size="13px" font-style="normal" font-weight="normal" text-decoration="none" x="453" y="152">+userId: User</text></g></g><g transform="translate(-62,-62) scale(1,1)"><g><path fill="none" stroke="none"/><text fill="#000000" stroke="none" font-family="Arial" font-size="13px" font-style="normal" font-weight="normal" text-decoration="none" x="453" y="167">+eventId: Event</text></g></g><g transform="translate(-62,-62) scale(1,1)"><g><path fill="none" stroke="none"/><text fill="#000000" stroke="none" font-family="Arial" font-size="13px" font-style="normal" font-weight="normal" text-decoration="none" x="453" y="181.5">+status: enum</text></g></g><g transform="translate(-62,-62) scale(1,1)"><g><path fill="none" stroke="none"/><text fill="#000000" stroke="none" font-family="Arial" font-size="13px" font-style="normal" font-weight="normal" text-decoration="none" x="453" y="205">+ReservationManagements()</text></g></g><g transform="translate(-62,-62) scale(1,1)"><path fill="none" stroke="#000000" d="M 249 152 L 447 153" stroke-miterlimit="10"/></g><g transform="translate(-62,-62) scale(1,1)"><g><path fill="none" stroke="none"/><text fill="#000000" stroke="none" font-family="Arial" font-size="13px" font-style="normal" font-weight="normal" text-decoration="none" x="254.5" y="173">1</text></g></g><g transform="translate(-62,-62) scale(1,1)"><g><path fill="none" stroke="none"/><text fill="#000000" stroke="none" font-family="Arial" font-size="13px" font-style="normal" font-weight="normal" text-decoration="none" x="422.5" y="171">0..*</text></g></g><g transform="translate(-62,-62) scale(1,1)"><path fill="none" stroke="#000000" d="M 626 153 L 831 153" stroke-miterlimit="10"/></g><g transform="translate(-62,-62) scale(1,1)"><g><path fill="none" stroke="none"/><text fill="#000000" stroke="none" font-family="Arial" font-size="13px" font-style="normal" font-weight="normal" text-decoration="none" x="632.5" y="169">0..*</text></g></g><g transform="translate(-62,-62) scale(1,1)"><g><path fill="none" stroke="none"/><text fill="#000000" stroke="none" font-family="Arial" font-size="13px" font-style="normal" font-weight="normal" text-decoration="none" x="817.385009765625" y="170">1</text></g></g><g transform="translate(-62,-62) scale(1,1)"><rect fill="#C0C0C0" stroke="none" x="839" y="463" width="167" height="85" opacity="0.2"/></g><g transform="translate(-62,-62) scale(1,1)"><rect fill="#ffffff" stroke="none" x="832" y="456" width="167" height="85"/></g><g transform="translate(-62,-62) scale(1,1)"><path fill="none" stroke="#000000" d="M 832 456 L 999 456 L 999 541 L 832 541 L 832 456 Z Z" stroke-miterlimit="10"/></g><g transform="translate(-62,-62) scale(1,1)"><path fill="none" stroke="#000000" d="M 832 481 L 999 481" stroke-miterlimit="10"/></g><g transform="translate(-62,-62) scale(1,1)"><path fill="none" stroke="#000000" d="M 832 519 L 999 519" stroke-miterlimit="10"/></g><g transform="translate(-62,-62) scale(1,1)"><g><path fill="none" stroke="none"/><text fill="#000000" stroke="none" font-family="Arial" font-size="13px" font-style="normal" font-weight="bold" text-decoration="none" x="887.325927734375" y="474">Category</text></g></g><g transform="translate(-62,-62) scale(1,1)"><g><path fill="none" stroke="none"/><text fill="#000000" stroke="none" font-family="Arial" font-size="13px" font-style="normal" font-weight="normal" text-decoration="none" x="837" y="497">+id: string</text></g></g><g transform="translate(-62,-62) scale(1,1)"><g><path fill="none" stroke="none"/><text fill="#000000" stroke="none" font-family="Arial" font-size="13px" font-style="normal" font-weight="normal" text-decoration="none" x="837" y="512">+name: string</text></g></g><g transform="translate(-62,-62) scale(1,1)"><g><path fill="none" stroke="none"/><text fill="#000000" stroke="none" font-family="Arial" font-size="13px" font-style="normal" font-weight="normal" text-decoration="none" x="837" y="535">+CategoryManagements()</text></g></g><g transform="translate(-62,-62) scale(1,1)"><path fill="none" stroke="#000000" d="M 915 455 L 915 235" stroke-miterlimit="10"/></g><g transform="translate(-62,-62) scale(1,1)"><g><path fill="none" stroke="none"/><text fill="#000000" stroke="none" font-family="Arial" font-size="13px" font-style="normal" font-weight="normal" text-decoration="none" x="923.5" y="451">1</text></g></g><g transform="translate(-62,-62) scale(1,1)"><g><path fill="none" stroke="none"/><text fill="#000000" stroke="none" font-family="Arial" font-size="13px" font-style="normal" font-weight="normal" text-decoration="none" x="918.5" y="250">1..*</text></g></g></g></svg>